# xmcd CD database file
#
# Track frame offsets:
#	150
#	16275
#	32380
#	51880
#	73022
#	87815
#	109077
#	140860
#	164997
#	192635
#	209340
#	226330
#	246110
#
# Disc length: 3726 seconds
#
# Revision: 1
# Processed by: cddbd v1.5.1PL0 Copyright (c) Steve Scherf et al.
# Submitted via: CDex 1.60beta1
#
DISCID=bc0e8c0d
DTITLE=Various Artist - Jazz Ballads For The Midnight Hour
DYEAR=0
DGENRE=Jazz
TTITLE0=Sarah Vaughan - 'Round Midnight
TTITLE1=John Lewis - I Can't Get Started
TTITLE2=Art Pepper - You Go To My Head
TTITLE3=The Three Sounds - Willow Weep For Me
TTITLE4=Nat King Cole - For All We Know
TTITLE5=Kenny Drew - Everything Happens To Me
TTITLE6=Jimmy Smith - Lover Man
TTITLE7=Lous Smith - Stardust
TTITLE8=Dexter Gordon - Son't Explain
TTITLE9=Dinah Shore - My Melancholy Baby
TTITLE10=Miles Davis - Yesterdays
TTITLE11=Chet Baker - My Ideal
TTITLE12=Ike Duebec - Nancy (With The Laughing Face)
EXTD=YEAR: 0
EXTT0=
EXTT1=
EXTT2=
EXTT3=
EXTT4=
EXTT5=
EXTT6=
EXTT7=
EXTT8=
EXTT9=
EXTT10=
EXTT11=
EXTT12=
PLAYORDER=
